<?xml version="1.0" encoding="UTF-8" standalone="no"?>
<!-- Created with Inkscape (http://www.inkscape.org/) -->

<svg
   xmlns:dc="http://purl.org/dc/elements/1.1/"
   xmlns:cc="http://creativecommons.org/ns#"
   xmlns:rdf="http://www.w3.org/1999/02/22-rdf-syntax-ns#"
   xmlns:svg="http://www.w3.org/2000/svg"
   xmlns="http://www.w3.org/2000/svg"
   xmlns:sodipodi="http://sodipodi.sourceforge.net/DTD/sodipodi-0.dtd"
   xmlns:inkscape="http://www.inkscape.org/namespaces/inkscape"
   width="100"
   height="100"
   viewBox="0 0 99.999997 99.999997"
   id="svg2"
   version="1.1"
   inkscape:version="0.91 r13725"
   sodipodi:docname="angry-face-cutthrough.svg">
  <defs
     id="defs4" />
  <sodipodi:namedview
     id="base"
     pagecolor="#ffffff"
     bordercolor="#666666"
     borderopacity="1.0"
     inkscape:pageopacity="0.0"
     inkscape:pageshadow="2"
     inkscape:zoom="3.7373913"
     inkscape:cx="-30.654445"
     inkscape:cy="42.495564"
     inkscape:document-units="px"
     inkscape:current-layer="g4197"
     showgrid="false"
     units="px"
     showguides="true"
     inkscape:guide-bbox="true"
     inkscape:snap-page="true"
     inkscape:snap-bbox="true"
     inkscape:bbox-paths="true"
     inkscape:bbox-nodes="false"
     inkscape:window-width="1388"
     inkscape:window-height="792"
     inkscape:window-x="53"
     inkscape:window-y="0"
     inkscape:window-maximized="0"
     inkscape:snap-bbox-midpoints="true"
     fit-margin-top="0"
     fit-margin-left="0"
     fit-margin-right="0"
     fit-margin-bottom="0"
     inkscape:snap-bbox-edge-midpoints="true"
     inkscape:snap-to-guides="true"
     inkscape:snap-global="true" />
  <metadata
     id="metadata7">
    <rdf:RDF>
      <cc:Work
         rdf:about="">
        <dc:format>image/svg+xml</dc:format>
        <dc:type
           rdf:resource="http://purl.org/dc/dcmitype/StillImage" />
        <dc:title />
      </cc:Work>
    </rdf:RDF>
  </metadata>
  <g
     inkscape:label="Layer 1"
     inkscape:groupmode="layer"
     id="layer1"
     transform="translate(0,-952.36216)" />
  <g
     inkscape:groupmode="layer"
     id="layer5"
     inkscape:label="4" />
  <g
     inkscape:groupmode="layer"
     id="layer4"
     inkscape:label="3"
     style="display:inline" />
  <g
     inkscape:groupmode="layer"
     id="layer2"
     inkscape:label="1"
     style="display:inline">
    <g
       id="g4197">
      <path
         style="fill:#ff4227;fill-opacity:1;stroke:none;stroke-width:3;stroke-miterlimit:4;stroke-dasharray:none;stroke-opacity:1"
         d="M 50 0 A 50 50 0 0 0 0 50 A 50 50 0 0 0 50 100 A 50 50 0 0 0 100 50 A 50 50 0 0 0 50 0 z M 24.542969 30.183594 A 4.50045 4.50045 0 0 1 26.701172 30.726562 L 44.09375 39.824219 A 4.50045 4.50045 0 0 1 40.332031 47.990234 L 40.332031 56.386719 C 40.332031 58.610195 38.541835 60.400391 36.318359 60.400391 L 34.980469 60.400391 C 32.756993 60.400391 30.96875 58.610195 30.96875 56.386719 L 30.96875 43.275391 C 30.96875 43.223133 30.982415 43.174808 30.984375 43.123047 L 22.53125 38.701172 A 4.50045 4.50045 0 0 1 24.542969 30.183594 z M 75.527344 30.183594 A 4.50045 4.50045 0 0 1 77.539062 38.701172 L 69.019531 43.158203 C 69.020691 43.198091 69.03125 43.235212 69.03125 43.275391 L 69.03125 56.386719 C 69.03125 58.610195 67.243007 60.400391 65.019531 60.400391 L 63.681641 60.400391 C 61.458165 60.400391 59.667969 58.610195 59.667969 56.386719 L 59.667969 48.019531 A 4.50045 4.50045 0 0 1 55.976562 39.824219 L 73.369141 30.726562 A 4.50045 4.50045 0 0 1 75.527344 30.183594 z M 49.818359 65.498047 C 57.413977 65.46391 63.947056 69.84109 73.431641 77.130859 A 4.559494 4.559494 0 1 1 67.875 84.361328 C 58.684749 77.297781 53.651075 74.600148 49.859375 74.617188 C 46.067675 74.634228 41.226077 77.360527 32.378906 84.328125 A 4.5593987 4.5593987 0 1 1 26.738281 77.164062 C 35.856435 69.983053 42.222742 65.532187 49.818359 65.498047 z "
         id="path4145" />
      <path
         style="fill:none;fill-rule:evenodd;stroke:#000000;stroke-width:1px;stroke-linecap:butt;stroke-linejoin:miter;stroke-opacity:1"
         d="M 74.849609,73.77832 Z"
         id="path4252"
         inkscape:connector-curvature="0" />
    </g>
  </g>
  <g
     inkscape:groupmode="layer"
     id="layer3"
     inkscape:label="1 eyes"
     style="display:inline" />
</svg>
