<?xml version="1.0" encoding="UTF-8" standalone="no"?>
<svg
   xmlns:dc="http://purl.org/dc/elements/1.1/"
   xmlns:cc="http://creativecommons.org/ns#"
   xmlns:rdf="http://www.w3.org/1999/02/22-rdf-syntax-ns#"
   xmlns:svg="http://www.w3.org/2000/svg"
   xmlns="http://www.w3.org/2000/svg"
   xmlns:sodipodi="http://sodipodi.sourceforge.net/DTD/sodipodi-0.dtd"
   xmlns:inkscape="http://www.inkscape.org/namespaces/inkscape"
   version="1.1"
   x="0px"
   y="0px"
   viewBox="0 0 87.197998 87.197998"
   enable-background="new 0 0 100 100"
   xml:space="preserve"
   id="svg2"
   inkscape:version="0.91 r13725"
   sodipodi:docname="noun_Health-105235-adjusted.svg"
   width="87.197998"
   height="87.197998"><metadata
     id="metadata12"><rdf:RDF><cc:Work
         rdf:about=""><dc:format>image/svg+xml</dc:format><dc:type
           rdf:resource="http://purl.org/dc/dcmitype/StillImage" /><dc:title></dc:title></cc:Work></rdf:RDF></metadata><defs
     id="defs10" /><sodipodi:namedview
     pagecolor="#ffffff"
     bordercolor="#666666"
     borderopacity="1"
     objecttolerance="10"
     gridtolerance="10"
     guidetolerance="10"
     inkscape:pageopacity="0"
     inkscape:pageshadow="2"
     inkscape:window-width="960"
     inkscape:window-height="743"
     id="namedview8"
     showgrid="false"
     fit-margin-top="0"
     fit-margin-left="0"
     fit-margin-right="0"
     fit-margin-bottom="0"
     inkscape:zoom="2.36"
     inkscape:cx="-57.748458"
     inkscape:cy="43.599"
     inkscape:window-x="0"
     inkscape:window-y="0"
     inkscape:window-maximized="0"
     inkscape:current-layer="svg2" /><path
     d="M 43.599,0 C 19.52,0 0,19.52 0,43.599 0,67.678 19.52,87.198 43.599,87.198 67.678,87.198 87.198,67.678 87.198,43.599 87.198,19.52 67.678,0 43.599,0 Z m 0,83.046 C 21.813,83.046 4.152,65.385 4.152,43.599 4.152,21.813 21.813,4.152 43.599,4.152 c 21.786,0 39.447,17.661 39.447,39.447 0,21.786 -17.661,39.447 -39.447,39.447 z"
     id="path4"
     inkscape:connector-curvature="0"
     style="fill:#ff4227;fill-opacity:1" /><path
     d="m 49.827,74.741 c -4.152,0 -8.305,0 -12.457,0 -2.293,0 -4.152,-1.859 -4.152,-4.152 0,-4.152 0,-8.305 0,-12.457 0,-2.293 -1.859,-4.152 -4.152,-4.152 -4.152,0 -8.305,0 -12.457,0 -2.293,0 -4.152,-1.859 -4.152,-4.152 0,-4.152 0,-8.305 0,-12.457 0,-2.293 1.859,-4.152 4.152,-4.152 4.152,0 8.305,0 12.457,0 2.293,0 4.152,-1.859 4.152,-4.152 0,-4.152 0,-8.305 0,-12.457 0,-2.293 1.859,-4.152 4.152,-4.152 4.152,0 8.305,0 12.457,0 2.293,0 4.152,1.859 4.152,4.152 0,4.152 0,8.305 0,12.457 0,2.293 1.859,4.152 4.152,4.152 4.152,0 8.305,0 12.457,0 2.293,0 4.152,1.859 4.152,4.152 0,4.152 0,8.305 0,12.457 0,2.293 -1.859,4.152 -4.152,4.152 -4.152,0 -8.305,0 -12.457,0 -2.293,0 -4.152,1.859 -4.152,4.152 0,4.152 0,8.305 0,12.457 10e-4,2.293 -1.858,4.152 -4.152,4.152 z"
     id="path6"
     inkscape:connector-curvature="0"
     style="fill:#ff4227;fill-opacity:1" /></svg>