<?xml version="1.0" encoding="UTF-8" standalone="no"?>
<svg
   xmlns:dc="http://purl.org/dc/elements/1.1/"
   xmlns:cc="http://creativecommons.org/ns#"
   xmlns:rdf="http://www.w3.org/1999/02/22-rdf-syntax-ns#"
   xmlns:svg="http://www.w3.org/2000/svg"
   xmlns="http://www.w3.org/2000/svg"
   xmlns:sodipodi="http://sodipodi.sourceforge.net/DTD/sodipodi-0.dtd"
   xmlns:inkscape="http://www.inkscape.org/namespaces/inkscape"
   version="1.1"
   x="0px"
   y="0px"
   viewBox="0 0 59.185 100"
   enable-background="new 0 0 59.185 100"
   xml:space="preserve"
   id="svg2"
   inkscape:version="0.91 r13725"
   sodipodi:docname="stop-noun-Hand-1476.svg"><metadata
     id="metadata10"><rdf:RDF><cc:Work
         rdf:about=""><dc:format>image/svg+xml</dc:format><dc:type
           rdf:resource="http://purl.org/dc/dcmitype/StillImage" /><dc:title></dc:title></cc:Work></rdf:RDF></metadata><defs
     id="defs8" /><sodipodi:namedview
     pagecolor="#ffffff"
     bordercolor="#666666"
     borderopacity="1"
     objecttolerance="10"
     gridtolerance="10"
     guidetolerance="10"
     inkscape:pageopacity="0"
     inkscape:pageshadow="2"
     inkscape:window-width="1025"
     inkscape:window-height="667"
     id="namedview6"
     showgrid="false"
     inkscape:zoom="2.36"
     inkscape:cx="-26.763432"
     inkscape:cy="50"
     inkscape:window-x="0"
     inkscape:window-y="0"
     inkscape:window-maximized="0"
     inkscape:current-layer="svg2" /><path
     d="M59.184,46.429c0-4.349-2.283-5.102-5.102-5.102s-5.103,2.284-5.103,5.102v19.897h-2.04V11.225  c0-2.818-2.284-5.102-5.103-5.102s-5.102,2.284-5.102,5.102V50.51h-2.041V5.102C34.694,2.286,32.409,0,29.592,0  c-2.818,0-5.102,2.286-5.102,5.102V50.51h-2.041V11.225c0-2.818-2.284-5.102-5.102-5.102s-5.102,2.284-5.102,5.102v42.347h-2.041  V29.592c0-2.817-2.284-5.102-5.102-5.102C2.285,24.49,0,26.775,0,31.123V73.47C0.005,86.754,13.247,99.996,29.592,100  c16.345-0.004,29.588-13.246,29.592-29.592l0.001-0.001L59.184,46.429z"
     id="path4"
     style="fill:#ff4227;fill-opacity:1" /></svg>