<?xml version="1.0" encoding="UTF-8" standalone="no"?>
<svg
   xmlns:dc="http://purl.org/dc/elements/1.1/"
   xmlns:cc="http://creativecommons.org/ns#"
   xmlns:rdf="http://www.w3.org/1999/02/22-rdf-syntax-ns#"
   xmlns:svg="http://www.w3.org/2000/svg"
   xmlns="http://www.w3.org/2000/svg"
   xmlns:sodipodi="http://sodipodi.sourceforge.net/DTD/sodipodi-0.dtd"
   xmlns:inkscape="http://www.inkscape.org/namespaces/inkscape"
   version="1.1"
   x="0px"
   y="0px"
   viewBox="-10.947 -4.446 99.998496 94.770285"
   enable-background="new -10.947 -4.446 99.998 94.77"
   xml:space="preserve"
   id="svg2"
   inkscape:version="0.91 r13725"
   sodipodi:docname="noun_1306_cc_no-att.svg"
   width="99.998497"
   height="94.770287"><metadata
     id="metadata16"><rdf:RDF><cc:Work
         rdf:about=""><dc:format>image/svg+xml</dc:format><dc:type
           rdf:resource="http://purl.org/dc/dcmitype/StillImage" /><dc:title></dc:title></cc:Work></rdf:RDF></metadata><defs
     id="defs14" /><sodipodi:namedview
     pagecolor="#ffffff"
     bordercolor="#666666"
     borderopacity="1"
     objecttolerance="10"
     gridtolerance="10"
     guidetolerance="10"
     inkscape:pageopacity="0"
     inkscape:pageshadow="2"
     inkscape:window-width="640"
     inkscape:window-height="480"
     id="namedview12"
     showgrid="false"
     fit-margin-top="0"
     fit-margin-left="0"
     fit-margin-right="0"
     fit-margin-bottom="0"
     inkscape:zoom="1.9921916"
     inkscape:cx="49.998501"
     inkscape:cy="35.537999"
     inkscape:window-x="0"
     inkscape:window-y="0"
     inkscape:window-maximized="0"
     inkscape:current-layer="svg2" /><path
     d="m 42.3605,23.92504 10.836,11.136 -48.4539995,53.569 c -2.107,2.259 -5.872,2.259 -8.13,0 l -5.866,-6.018 c -2.2580005,-2.106 -2.2580005,-5.868 0,-8.124 L 42.3605,23.92504 Z"
     id="path4"
     inkscape:connector-curvature="0"
     style="fill:#b3b3b3" /><path
     d="m 87.8115,35.36004 -8.13,8.278 c -1.653,1.656 -4.214,1.656 -6.018,0 l -1.805,-1.955 c -1.355,-1.205 -1.961,-3.463 -1.204,-4.516 1.35,-0.902 0.902,-3.611 -1.659,-6.021 -3.607,-3.762 -8.275,-3.911 -10.079,-1.956 -0.751,0.603 -3.16,3.16 -3.16,3.16 l -11.138,-10.983 1.81,-1.807 c 0,0 0.448,-0.451 1.351,-1.504 3.463,-3.462 -0.151,-7.374 -0.151,-7.374 -9.777,-9.6310002 -23.471,-9.4800002 -23.471,-9.4800002 l -0.151,-3.463 c 27.539,-7.074 37.921,4.967 41.687,8.729 3.456,3.46 7.07,7.0710002 7.973,7.9760002 1.955,1.955 0,7.521 2.857,10.685 1.355,1.353 3.16,1.956 4.516,1.956 1.508,-1.353 3.911,-0.902 5.115,0.451 l 1.659,1.807 c 1.651,1.656 1.651,4.213 -0.002,6.017 z"
     id="path6"
     inkscape:connector-curvature="0"
     style="fill:#b3b3b3" /></svg>