<?xml version="1.0" encoding="UTF-8" standalone="no"?>
<svg
   xmlns:dc="http://purl.org/dc/elements/1.1/"
   xmlns:cc="http://creativecommons.org/ns#"
   xmlns:rdf="http://www.w3.org/1999/02/22-rdf-syntax-ns#"
   xmlns:svg="http://www.w3.org/2000/svg"
   xmlns="http://www.w3.org/2000/svg"
   xmlns:sodipodi="http://sodipodi.sourceforge.net/DTD/sodipodi-0.dtd"
   xmlns:inkscape="http://www.inkscape.org/namespaces/inkscape"
   version="1.1"
   x="0px"
   y="0px"
   viewBox="-10.947 -4.446 99.998 118.46249999999999"
   enable-background="new -10.947 -4.446 99.998 94.77"
   xml:space="preserve"
   id="svg2"
   inkscape:version="0.48.2 r9819"
   width="100%"
   height="100%"
   sodipodi:docname="noun_1306_cc.svg"><metadata
     id="metadata16"><rdf:RDF><cc:Work
         rdf:about=""><dc:format>image/svg+xml</dc:format><dc:type
           rdf:resource="http://purl.org/dc/dcmitype/StillImage" /><dc:title></dc:title></cc:Work></rdf:RDF></metadata><defs
     id="defs14" /><sodipodi:namedview
     pagecolor="#ffffff"
     bordercolor="#666666"
     borderopacity="1"
     objecttolerance="10"
     gridtolerance="10"
     guidetolerance="10"
     inkscape:pageopacity="0"
     inkscape:pageshadow="2"
     inkscape:window-width="640"
     inkscape:window-height="480"
     id="namedview12"
     showgrid="false"
     inkscape:zoom="1.9921916"
     inkscape:cx="49.999"
     inkscape:cy="59.23125"
     inkscape:window-x="0"
     inkscape:window-y="0"
     inkscape:window-maximized="0"
     inkscape:current-layer="svg2" /><path
     d="M42.361,23.924L53.197,35.06L4.743,88.629c-2.107,2.259-5.872,2.259-8.13,0l-5.866-6.018c-2.258-2.106-2.258-5.868,0-8.124  L42.361,23.924z"
     id="path4" /><path
     d="M87.812,35.359l-8.13,8.278c-1.653,1.656-4.214,1.656-6.018,0l-1.805-1.955c-1.355-1.205-1.961-3.463-1.204-4.516  c1.35-0.902,0.902-3.611-1.659-6.021c-3.607-3.762-8.275-3.911-10.079-1.956c-0.751,0.603-3.16,3.16-3.16,3.16L44.619,21.366  l1.81-1.807c0,0,0.448-0.451,1.351-1.504c3.463-3.462-0.151-7.374-0.151-7.374c-9.777-9.631-23.471-9.48-23.471-9.48l-0.151-3.463  c27.539-7.074,37.921,4.967,41.687,8.729c3.456,3.46,7.07,7.071,7.973,7.976c1.955,1.955,0,7.521,2.857,10.685  c1.355,1.353,3.16,1.956,4.516,1.956c1.508-1.353,3.911-0.902,5.115,0.451l1.659,1.807C89.465,30.998,89.465,33.555,87.812,35.359z"
     id="path6" /><text
     x="-10.947"
     y="105.324"
     fill="#000000"
     font-size="5px"
     font-weight="bold"
     font-family="'Helvetica Neue', Helvetica, Arial-Unicode, Arial, Sans-serif"
     id="text8">Created by John Caserta</text>
<text
     x="-10.947"
     y="110.324"
     fill="#000000"
     font-size="5px"
     font-weight="bold"
     font-family="'Helvetica Neue', Helvetica, Arial-Unicode, Arial, Sans-serif"
     id="text10">from the Noun Project</text>
</svg>