<?xml version="1.0" encoding="UTF-8" standalone="no"?>
<svg
   xmlns:dc="http://purl.org/dc/elements/1.1/"
   xmlns:cc="http://creativecommons.org/ns#"
   xmlns:rdf="http://www.w3.org/1999/02/22-rdf-syntax-ns#"
   xmlns:svg="http://www.w3.org/2000/svg"
   xmlns="http://www.w3.org/2000/svg"
   xmlns:sodipodi="http://sodipodi.sourceforge.net/DTD/sodipodi-0.dtd"
   xmlns:inkscape="http://www.inkscape.org/namespaces/inkscape"
   version="1.1"
   x="0px"
   y="0px"
   viewBox="-205 207 94.441772 49.674149"
   xml:space="preserve"
   id="svg2"
   inkscape:version="0.91 r13725"
   sodipodi:docname="noun_170400_chaser.svg"
   width="94.441772"
   height="49.674149"><metadata
     id="metadata14"><rdf:RDF><cc:Work
         rdf:about=""><dc:format>image/svg+xml</dc:format><dc:type
           rdf:resource="http://purl.org/dc/dcmitype/StillImage" /><dc:title></dc:title></cc:Work></rdf:RDF></metadata><defs
     id="defs12" /><sodipodi:namedview
     pagecolor="#ffffff"
     bordercolor="#666666"
     borderopacity="1"
     objecttolerance="10"
     gridtolerance="10"
     guidetolerance="10"
     inkscape:pageopacity="0"
     inkscape:pageshadow="2"
     inkscape:window-width="1247"
     inkscape:window-height="698"
     id="namedview10"
     showgrid="false"
     inkscape:zoom="2.36"
     inkscape:cx="64.607087"
     inkscape:cy="41.77445"
     inkscape:window-x="0"
     inkscape:window-y="0"
     inkscape:window-maximized="0"
     inkscape:current-layer="svg2"
     fit-margin-top="0"
     fit-margin-left="0"
     fit-margin-right="0"
     fit-margin-bottom="0"
     inkscape:object-paths="false"
     inkscape:snap-page="true"
     inkscape:object-nodes="true" /><path
     d="m -169.56579,217.74885 c 2.9,0.4 5.6,-1.7 6,-4.7 0.4,-2.9 -1.7,-5.6 -4.7,-6 -3,-0.4 -5.6,1.7 -6,4.7 -0.4,3 1.7,5.7 4.7,6 z m -25,1.3 c 1.3,-1.6 2.6,-3.3 3.9,-4.9 0.5,-0.6 1.1,-0.9 1.9,-0.8 3.6,0.4 7.2,0.8 10.7,1.3 0.7,0.1 1.4,0.4 1.9,0.8 1.8,1.5 3.6,3.1 5.4,4.6 1,0.8 1.4,1.9 1.2,3.2 -0.2,1.7 -0.4,3.5 -0.6,5.3 0,0.2 0,0.4 -0.1,0.7 0.2,0 0.4,0.1 0.6,0.1 2,0.2 3.9,0.5 5.9,0.7 1.4,0.2 2.3,1.2 2.2,2.5 -0.2,1.3 -1.3,2.2 -2.7,2 -3.2,-0.4 -6.3,-0.7 -9.5,-1.1 -1,-0.1 -1.4,-0.7 -1.3,-1.7 0.2,-1.5 0.3,-3 0.5,-4.4 l 0,-0.3 c -1.8,2.1 -3.5,4.2 -5.2,6.3 0.2,0.2 0.3,0.3 0.5,0.4 1.7,1.4 3.5,2.8 5.2,4.1 0.8,0.7 1.2,1.5 1,2.5 -0.5,4.5 -1.1,9.1 -1.6,13.6 -0.2,1.7 -1.4,2.7 -3.1,2.5 -1.7,-0.2 -2.6,-1 -2.8,-2.4 l 0,-0.8 c 0.4,-3.8 0.9,-7.7 1.3,-11.5 0,-0.3 0.1,-0.5 -0.2,-0.8 -1.7,-1.2 -3.4,-2.5 -5.1,-3.8 l -2,-2.1 0,0 0,0 0,0 c -0.3,-0.3 -3.5,-3.8 -0.8,-7.2 l 0,0 c 2.2,-2.7 4.3,-5.5 6.5,-8.2 0.1,-0.2 0.3,-0.4 0.5,-0.6 -0.2,0 -0.3,-0.1 -0.5,-0.1 -2.2,-0.3 -4.4,-0.5 -6.5,-0.8 -0.4,0 -0.6,0.1 -0.8,0.4 -0.9,1.2 -1.8,2.3 -2.8,3.5 -0.9,1.1 -2.3,1.4 -3.4,0.5 -1,-0.9 -1.1,-2.3 -0.2,-3.5 z m -10.4,17.7 c 0.1,-1.3 0.7,-2.4 2,-2.9 0.8,-0.4 1.7,-0.2 2.5,0.2 2.1,1.2 4.2,2.3 6.3,3.5 0.2,0.1 0.4,0.2 0.6,0.4 l 0.3,-0.6 c 1.2,-2.1 1.1,-1.8 2.2,-4 0,-0.1 0.5,-0.8 0.8,-1.4 0.3,1.9 1.4,3.5 2.3,4.4 l 0,0 0,0 1.3,1.3 c -1.2,2.2 -2.5,4.5 -3.7,6.6 -0.7,1.3 -1.5,1.5 -2.8,0.8 -3.4,-1.9 -6.9,-3.8 -10.3,-5.7 -1,-0.6 -1.7,-1.4 -1.5,-2.6 z"
     id="path8"
     inkscape:connector-curvature="0"
     style="fill:#71b644;fill-opacity:1"
     sodipodi:nodetypes="ccssccccsccccccccccccccccccsccccccccccccccccccccccccccccccccccc" /><path
     style="fill:none;fill-rule:evenodd;stroke:#b3b3b3;stroke-width:2.5;stroke-linecap:round;stroke-linejoin:miter;stroke-miterlimit:4;stroke-dasharray:none;stroke-opacity:1"
     d="m -162.20339,223.19957 12.28814,0"
     id="path3361"
     inkscape:connector-curvature="0" /><path
     style="fill:none;fill-rule:evenodd;stroke:#b3b3b3;stroke-width:2.5;stroke-linecap:round;stroke-linejoin:miter;stroke-miterlimit:4;stroke-dasharray:none;stroke-opacity:1"
     d="m -156.48305,227.86059 12.28814,0"
     id="path3361-2"
     inkscape:connector-curvature="0" /><path
     d="m -118.65823,217.78593 c 2.9,0.4 5.6,-1.7 6,-4.7 0.4,-2.9 -1.7,-5.6 -4.7,-6 -3,-0.4 -5.6,1.7 -6,4.7 -0.3,3 1.8,5.7 4.7,6 z m -24.9,1.3 c 1.3,-1.6 2.6,-3.3 3.9,-4.9 0.5,-0.6 1.1,-0.9 1.9,-0.8 3.6,0.4 7.2,0.8 10.7,1.3 0.7,0.1 1.4,0.4 1.9,0.8 1.8,1.5 3.6,3.1 5.4,4.6 1,0.8 1.4,1.9 1.2,3.2 -0.2,1.7 -0.4,3.5 -0.6,5.3 0,0.2 0,0.4 -0.1,0.7 0.2,0 0.4,0.1 0.6,0.1 2,0.2 3.9,0.5 5.9,0.7 1.4,0.2 2.3,1.2 2.2,2.5 -0.2,1.3 -1.3,2.2 -2.7,2 -3.2,-0.4 -6.3,-0.7 -9.5,-1.1 -1,-0.1 -1.4,-0.7 -1.3,-1.7 0.2,-1.5 0.3,-3 0.5,-4.4 l 0,-0.3 c -1.8,2.1 -3.5,4.2 -5.2,6.3 0.2,0.2 0.3,0.3 0.5,0.4 1.7,1.4 3.5,2.8 5.2,4.1 0.8,0.7 1.2,1.5 1,2.5 -0.5,4.5 -1.1,9.1 -1.6,13.6 -0.2,1.7 -1.4,2.7 -3.1,2.5 -1.7,-0.2 -2.6,-1 -2.8,-2.4 l 0,-0.8 c 0.4,-3.8 0.9,-7.7 1.3,-11.5 0,-0.3 0.1,-0.5 -0.2,-0.8 -1.7,-1.2 -3.4,-2.5 -5.1,-3.8 l -2,-2.1 0,0 0,0 0,0 c -0.3,-0.3 -3.5,-3.8 -0.8,-7.2 l 0,0 c 2.2,-2.7 4.3,-5.5 6.5,-8.2 0.1,-0.2 0.3,-0.4 0.5,-0.6 -0.2,0 -0.3,-0.1 -0.5,-0.1 -2.2,-0.3 -4.4,-0.5 -6.5,-0.8 -0.4,0 -0.6,0.1 -0.8,0.4 -0.9,1.2 -1.8,2.3 -2.8,3.5 -0.9,1.1 -2.3,1.4 -3.4,0.5 -1,-0.9 -1.1,-2.3 -0.2,-3.5 z m -10.5,17.7 c 0.1,-1.3 0.7,-2.4 2,-2.9 0.8,-0.4 1.7,-0.2 2.5,0.2 2.1,1.2 4.2,2.3 6.3,3.5 0.2,0.1 0.4,0.2 0.6,0.4 l 0.3,-0.6 c 1.2,-2.1 1.1,-1.8 2.2,-4 0,-0.1 0.5,-0.8 0.8,-1.4 0.3,1.9 1.4,3.5 2.3,4.4 l 0,0 0,0 1.3,1.3 c -1.2,2.2 -2.5,4.5 -3.7,6.6 -0.7,1.3 -1.5,1.5 -2.8,0.8 -3.4,-1.9 -6.9,-3.8 -10.3,-5.7 -0.9,-0.6 -1.6,-1.4 -1.5,-2.6 z"
     id="path8-4"
     inkscape:connector-curvature="0"
     style="fill:#b3b3b3;fill-opacity:0.93333334"
     sodipodi:nodetypes="ccscccccsccccccccccccccccccsccccccccccccccccccccccccccccccccccc" /></svg>