<svg xmlns="http://www.w3.org/2000/svg" xmlns:xlink="http://www.w3.org/1999/xlink" version="1.1" x="0px" y="0px" viewBox="0 0 90 112.5" enable-background="new 0 0 90 90" xml:space="preserve"><metadata><?xpacket begin="&#65279;" id="W5M0MpCehiHzreSzNTczkc9d"?><x:xmpmeta xmlns:x="adobe:ns:meta/" x:xmptk="Adobe XMP Core 5.3-c011 66.145661, 2012/02/06-14:56:27        "/><?xpacket end="w"?></metadata><path d="M156.167-19.605v-2.43h-22.276v-21.466h-2.431v21.466h-19.441v-21.466h-2.43v21.466H90.147v-21.466h-2.43v21.466h-19.44  v-21.466h-2.433v21.466H46.405v-21.466h-2.43v21.466h-19.44v-21.466h-2.429v21.466H2.664v-21.466H0.232v21.466h-19.439v-21.466  h-2.431v21.466H-41.08v-21.466h-2.429v21.466h-20.658v2.43h20.658v19.442h-20.658v2.431h20.658l-0.002,19.439h-20.656v2.431h20.656  v19.441h-20.656v2.431h20.656v19.44h-20.656v2.43h20.656v19.441h-20.656v2.431h20.656v19.44h-20.656v2.431h20.656v19.44h-20.656  v2.432h20.656v19.44h-20.656v2.429h20.656v21.469h2.429v-21.469h19.442v21.469h2.429v-21.469H0.23v21.469h2.43v-21.469h19.441  v21.469h2.431v-21.469h19.441v21.469h2.431v-21.469h19.439v21.469h2.433v-21.469h19.44v21.469h2.43v-21.469h19.441v21.469h2.43  v-21.469h19.441v21.469h2.431v-21.469h22.276v-2.429h-22.276v-19.44h22.276v-2.432h-22.276v-19.44h22.276v-2.431h-22.276v-19.44  h22.276v-2.431h-22.276V67.88h22.276v-2.43h-22.276V46.01h22.276v-2.431h-22.276V24.138h22.276v-2.431h-22.276V2.268h22.276v-2.431  h-22.276v-19.442H156.167z M109.589-19.605v19.442H90.147v-19.442H109.589z M43.974,67.88v19.441h-19.44V67.88H43.974z   M24.534,65.45V46.01h19.44v19.44H24.534z M46.405,67.88h19.439v19.441H46.405V67.88z M46.405,65.45V46.01h19.439v19.44H46.405z   M46.405,43.579V24.138h19.439v19.441H46.405z M43.974,43.579h-19.44V24.138h19.44V43.579z M22.104,43.579H2.662V24.138h19.442  V43.579z M22.104,46.01v19.44H2.662V46.01H22.104z M22.104,67.88v19.441H2.662V67.88H22.104z M22.104,89.752v19.44H2.662v-19.44  H22.104z M24.534,89.752h19.44v19.44h-19.44V89.752z M46.405,89.752h19.439v19.44H46.405V89.752z M68.277,89.752h19.44v19.44h-19.44  V89.752z M68.277,87.321V67.88h19.44v19.441H68.277z M68.277,65.45V46.01h19.44v19.44H68.277z M68.277,43.579V24.138h19.44v19.441  H68.277z M68.277,21.707V2.268h19.44v19.439H68.277z M65.845,21.707H46.405V2.268h19.439V21.707z M43.974,21.707h-19.44  l0.001-19.439h19.44L43.974,21.707z M22.104,21.707H2.662L2.664,2.268h19.442L22.104,21.707z M0.231,21.707h-19.44l0.002-19.439  H0.232L0.231,21.707z M0.231,24.138v19.441h-19.44V24.138H0.231z M0.231,46.01v19.44h-19.44V46.01H0.231z M0.231,67.88v19.441  h-19.44V67.88H0.231z M0.231,89.752v19.44h-19.44v-19.44H0.231z M0.231,111.623l-0.001,19.44h-19.441l0.002-19.44H0.231z   M2.662,111.623h19.442l-0.002,19.44H2.661L2.662,111.623z M24.534,111.623h19.44v19.44H24.533L24.534,111.623z M46.405,111.623  h19.439v19.44H46.405V111.623z M68.277,111.623h19.44v19.44h-19.44V111.623z M90.147,111.623h19.441v19.44H90.147V111.623z   M90.147,109.192v-19.44h19.441v19.44H90.147z M90.147,87.321V67.88h19.441v19.441H90.147z M90.147,65.45V46.01h19.441v19.44H90.147  z M90.147,43.579V24.138h19.441v19.441H90.147z M90.147,21.707V2.268h19.441v19.439H90.147z M87.718-19.605v19.442h-19.44v-19.442  H87.718z M65.845-19.605v19.442H46.405v-19.442H65.845z M43.975-19.605v19.442h-19.44v-19.442H43.975z M22.105-19.605v19.442H2.664  v-19.442H22.105z M0.232-19.605v19.442h-19.439v-19.442H0.232z M-41.08-19.605h19.442v19.442H-41.08V-19.605z M-41.08,2.268h19.442  l-0.002,19.439h-19.44V2.268z M-41.08,24.138h19.44v19.441h-19.44V24.138z M-41.08,46.01h19.44v19.44h-19.44V46.01z M-41.08,67.88  h19.44v19.441h-19.44V67.88z M-41.08,89.752h19.44v19.44h-19.44V89.752z M-41.08,111.623h19.44v19.44h-19.442L-41.08,111.623z   M-41.082,152.936v-19.44h19.442v19.44H-41.082z M-19.211,152.936v-19.44H0.23v19.44H-19.211z M2.661,152.936v-19.44h19.441v19.44  H2.661z M24.533,152.936v-19.44h19.441v19.44H24.533z M46.405,152.936v-19.44h19.439v19.44H46.405z M68.277,152.936v-19.44h19.44  v19.44H68.277z M90.147,152.936v-19.44h19.441v19.44H90.147z M131.46,152.936h-19.441v-19.44h19.441V152.936z M131.46,131.063  h-19.441v-19.44h19.441V131.063z M131.46,109.192h-19.441v-19.44h19.441V109.192z M131.46,87.321h-19.441V67.88h19.441V87.321z   M131.46,65.45h-19.441V46.01h19.441V65.45z M131.46,43.579h-19.441V24.138h19.441V43.579z M131.46,21.707h-19.441V2.268h19.441  V21.707z M131.46-0.164h-19.441v-19.442h19.441V-0.164z"/><text x="0" y="105" fill="#000000" font-size="5px" font-weight="bold" font-family="'Helvetica Neue', Helvetica, Arial-Unicode, Arial, Sans-serif">Created by Sblendone</text><text x="0" y="110" fill="#000000" font-size="5px" font-weight="bold" font-family="'Helvetica Neue', Helvetica, Arial-Unicode, Arial, Sans-serif">from the Noun Project</text></svg>