<?xml version="1.0" encoding="UTF-8" standalone="no"?>
<svg
   xmlns:x="adobe:ns:meta/"
   xmlns:dc="http://purl.org/dc/elements/1.1/"
   xmlns:cc="http://creativecommons.org/ns#"
   xmlns:rdf="http://www.w3.org/1999/02/22-rdf-syntax-ns#"
   xmlns:svg="http://www.w3.org/2000/svg"
   xmlns="http://www.w3.org/2000/svg"
   xmlns:sodipodi="http://sodipodi.sourceforge.net/DTD/sodipodi-0.dtd"
   xmlns:inkscape="http://www.inkscape.org/namespaces/inkscape"
   version="1.1"
   x="0px"
   y="0px"
   viewBox="0 0 90 90"
   enable-background="new 0 0 90 90"
   xml:space="preserve"
   id="svg2"
   inkscape:version="0.91 r13725"
   sodipodi:docname="noun_37982_cc_no-attr.svg"
   width="90"
   height="90"><defs
     id="defs14" /><sodipodi:namedview
     pagecolor="#ffffff"
     bordercolor="#666666"
     borderopacity="1"
     objecttolerance="10"
     gridtolerance="10"
     guidetolerance="10"
     inkscape:pageopacity="0"
     inkscape:pageshadow="2"
     inkscape:window-width="949"
     inkscape:window-height="472"
     id="namedview12"
     showgrid="false"
     inkscape:zoom="2.0977778"
     inkscape:cx="63.829449"
     inkscape:cy="56.250001"
     inkscape:window-x="0"
     inkscape:window-y="0"
     inkscape:window-maximized="0"
     inkscape:current-layer="svg2"
     borderlayer="true" /><metadata
     id="metadata4"><?xpacket begin="&#65279;" id="W5M0MpCehiHzreSzNTczkc9d"?><x:xmpmeta
       x:xmptk="Adobe XMP Core 5.3-c011 66.145661, 2012/02/06-14:56:27        " /><?xpacket end="w"?><rdf:RDF><cc:Work
         rdf:about=""><dc:format>image/svg+xml</dc:format><dc:type
           rdf:resource="http://purl.org/dc/dcmitype/StillImage" /><dc:title></dc:title></cc:Work></rdf:RDF></metadata><path
     d="m 156.167,-42.105 0,-2.43 -22.276,0 0,-21.466 -2.431,0 0,21.466 -19.441,0 0,-21.466 -2.43,0 0,21.466 -19.442,0 0,-21.466 -2.43,0 0,21.466 -19.44,0 0,-21.466 -2.433,0 0,21.466 -19.439,0 0,-21.466 -2.43,0 0,21.466 -19.44,0 0,-21.466 -2.429,0 0,21.466 -19.442,0 0,-21.466 -2.432,0 0,21.466 -19.439,0 0,-21.466 -2.431,0 0,21.466 -19.442,0 0,-21.466 -2.429,0 0,21.466 -20.658,0 0,2.43 20.658,0 0,19.442 -20.658,0 0,2.431 20.658,0 -0.002,19.439 -20.656,0 0,2.431 20.656,0 0,19.441 -20.656,0 0,2.431 20.656,0 0,19.44 -20.656,0 0,2.43 20.656,0 0,19.441 -20.656,0 0,2.431 20.656,0 0,19.44 -20.656,0 0,2.431 20.656,0 0,19.44 -20.656,0 0,2.432 20.656,0 0,19.44 -20.656,0 0,2.429 20.656,0 0,21.469 2.429,0 0,-21.469 19.442,0 0,21.469 2.429,0 0,-21.469 19.441,0 0,21.469 2.43,0 0,-21.469 19.441,0 0,21.469 2.431,0 0,-21.469 19.441,0 0,21.469 2.431,0 0,-21.469 19.439,0 0,21.469 2.433,0 0,-21.469 19.44,0 0,21.469 2.43,0 0,-21.469 19.441,0 0,21.469 2.43,0 0,-21.469 19.441,0 0,21.469 2.431,0 0,-21.469 22.276,0 0,-2.429 -22.276,0 0,-19.44 22.276,0 0,-2.432 -22.276,0 0,-19.44 22.276,0 0,-2.431 -22.276,0 0,-19.44 22.276,0 0,-2.431 -22.276,0 0,-19.441 22.276,0 0,-2.43 -22.276,0 0,-19.44 22.276,0 0,-2.431 -22.276,0 0,-19.441 22.276,0 0,-2.431 -22.276,0 0,-19.439 22.276,0 0,-2.431 -22.276,0 0,-19.442 22.278,0 z m -46.578,0 0,19.442 -19.442,0 0,-19.442 19.442,0 z m -65.615,87.485 0,19.441 -19.44,0 0,-19.441 19.44,0 z m -19.44,-2.43 0,-19.44 19.44,0 0,19.44 -19.44,0 z m 21.871,2.43 19.439,0 0,19.441 -19.439,0 0,-19.441 z m 0,-2.43 0,-19.44 19.439,0 0,19.44 -19.439,0 z m 0,-21.871 0,-19.441 19.439,0 0,19.441 -19.439,0 z m -2.431,0 -19.44,0 0,-19.441 19.44,0 0,19.441 z m -21.87,0 -19.442,0 0,-19.441 19.442,0 0,19.441 z m 0,2.431 0,19.44 -19.442,0 0,-19.44 19.442,0 z m 0,21.87 0,19.441 -19.442,0 0,-19.441 19.442,0 z m 0,21.872 0,19.44 -19.442,0 0,-19.44 19.442,0 z m 2.43,0 19.44,0 0,19.44 -19.44,0 0,-19.44 z m 21.871,0 19.439,0 0,19.44 -19.439,0 0,-19.44 z m 21.872,0 19.44,0 0,19.44 -19.44,0 0,-19.44 z m 0,-2.431 0,-19.441 19.44,0 0,19.441 -19.44,0 z m 0,-21.871 0,-19.44 19.44,0 0,19.44 -19.44,0 z m 0,-21.871 0,-19.441 19.44,0 0,19.441 -19.44,0 z m 0,-21.872 0,-19.439 19.44,0 0,19.439 -19.44,0 z m -2.432,0 -19.44,0 0,-19.439 19.439,0 0,19.439 z m -21.871,0 -19.44,0 0.001,-19.439 19.44,0 -0.001,19.439 z m -21.87,0 -19.442,0 0.002,-19.439 19.442,0 -0.002,19.439 z m -21.873,0 -19.44,0 0.002,-19.439 19.439,0 -0.001,19.439 z m 0,2.431 0,19.441 -19.44,0 0,-19.441 19.44,0 z m 0,21.872 0,19.44 -19.44,0 0,-19.44 19.44,0 z m 0,21.87 0,19.441 -19.44,0 0,-19.441 19.44,0 z m 0,21.872 0,19.44 -19.44,0 0,-19.44 19.44,0 z m 0,21.871 -0.001,19.44 -19.441,0 0.002,-19.44 19.44,0 z m 2.431,0 19.442,0 -0.002,19.44 -19.441,0 10e-4,-19.44 z m 21.872,0 19.44,0 0,19.44 -19.441,0 10e-4,-19.44 z m 21.871,0 19.439,0 0,19.44 -19.439,0 0,-19.44 z m 21.872,0 19.44,0 0,19.44 -19.44,0 0,-19.44 z m 21.87,0 19.441,0 0,19.44 -19.441,0 0,-19.44 z m 0,-2.431 0,-19.44 19.441,0 0,19.44 -19.441,0 z m 0,-21.871 0,-19.441 19.441,0 0,19.441 -19.441,0 z m 0,-21.871 0,-19.44 19.441,0 0,19.44 -19.441,0 z m 0,-21.871 0,-19.441 19.441,0 0,19.441 -19.441,0 z m 0,-21.872 0,-19.439 19.441,0 0,19.439 -19.441,0 z m -2.429,-41.312 0,19.442 -19.44,0 0,-19.442 19.44,0 z m -21.873,0 0,19.442 -19.44,0 0,-19.442 19.44,0 z m -21.87,0 0,19.442 -19.44,0 0,-19.442 19.44,0 z m -21.87,0 0,19.442 -19.441,0 0,-19.442 19.441,0 z m -21.873,0 0,19.442 -19.439,0 0,-19.442 19.439,0 z m -41.312,0 19.442,0 0,19.442 -19.442,0 0,-19.442 z m 0,21.873 19.442,0 -0.002,19.439 -19.44,0 0,-19.439 z m 0,21.87 19.44,0 0,19.441 -19.44,0 0,-19.441 z m 0,21.872 19.44,0 0,19.44 -19.44,0 0,-19.44 z m 0,21.87 19.44,0 0,19.441 -19.44,0 0,-19.441 z m 0,21.872 19.44,0 0,19.44 -19.44,0 0,-19.44 z m 0,21.871 19.44,0 0,19.44 -19.442,0 0.002,-19.44 z m -0.002,41.313 0,-19.44 19.442,0 0,19.44 -19.442,0 z m 21.871,0 0,-19.44 19.441,0 0,19.44 -19.441,0 z m 21.872,0 0,-19.44 19.441,0 0,19.44 -19.441,0 z m 21.872,0 0,-19.44 19.441,0 0,19.44 -19.441,0 z m 21.872,0 0,-19.44 19.439,0 0,19.44 -19.439,0 z m 21.872,0 0,-19.44 19.44,0 0,19.44 -19.44,0 z m 21.87,0 0,-19.44 19.441,0 0,19.44 -19.441,0 z m 41.313,0 -19.441,0 0,-19.44 19.441,0 0,19.44 z m 0,-21.873 -19.441,0 0,-19.44 19.441,0 0,19.44 z m 0,-21.871 -19.441,0 0,-19.44 19.441,0 0,19.44 z m 0,-21.871 -19.441,0 0,-19.441 19.441,0 0,19.441 z m 0,-21.871 -19.441,0 0,-19.44 19.441,0 0,19.44 z m 0,-21.871 -19.441,0 0,-19.441 19.441,0 0,19.441 z m 0,-21.872 -19.441,0 0,-19.439 19.441,0 0,19.439 z m 0,-21.871 -19.441,0 0,-19.442 19.441,0 0,19.442 z"
     id="path6"
     style="fill:#999999"
     inkscape:connector-curvature="0" /></svg>