<?xml version="1.0" encoding="UTF-8" standalone="no"?>
<!-- Created with Inkscape (http://www.inkscape.org/) -->

<svg
   xmlns:dc="http://purl.org/dc/elements/1.1/"
   xmlns:cc="http://creativecommons.org/ns#"
   xmlns:rdf="http://www.w3.org/1999/02/22-rdf-syntax-ns#"
   xmlns:svg="http://www.w3.org/2000/svg"
   xmlns="http://www.w3.org/2000/svg"
   xmlns:sodipodi="http://sodipodi.sourceforge.net/DTD/sodipodi-0.dtd"
   xmlns:inkscape="http://www.inkscape.org/namespaces/inkscape"
   width="100"
   height="100"
   viewBox="0 0 99.999997 99.999997"
   id="svg2"
   version="1.1"
   inkscape:version="0.91 r13725"
   sodipodi:docname="smile-face-green-cutthrough.svg">
  <defs
     id="defs4" />
  <sodipodi:namedview
     id="base"
     pagecolor="#ffffff"
     bordercolor="#666666"
     borderopacity="1.0"
     inkscape:pageopacity="0.0"
     inkscape:pageshadow="2"
     inkscape:zoom="3.7373913"
     inkscape:cx="11.621031"
     inkscape:cy="43.833396"
     inkscape:document-units="px"
     inkscape:current-layer="g4197"
     showgrid="false"
     units="px"
     showguides="true"
     inkscape:guide-bbox="true"
     inkscape:snap-page="true"
     inkscape:snap-bbox="true"
     inkscape:bbox-paths="true"
     inkscape:bbox-nodes="false"
     inkscape:window-width="1388"
     inkscape:window-height="792"
     inkscape:window-x="53"
     inkscape:window-y="0"
     inkscape:window-maximized="0"
     inkscape:snap-bbox-midpoints="true"
     fit-margin-top="0"
     fit-margin-left="0"
     fit-margin-right="0"
     fit-margin-bottom="0"
     inkscape:snap-bbox-edge-midpoints="true"
     inkscape:snap-to-guides="true" />
  <metadata
     id="metadata7">
    <rdf:RDF>
      <cc:Work
         rdf:about="">
        <dc:format>image/svg+xml</dc:format>
        <dc:type
           rdf:resource="http://purl.org/dc/dcmitype/StillImage" />
        <dc:title></dc:title>
      </cc:Work>
    </rdf:RDF>
  </metadata>
  <g
     inkscape:label="Layer 1"
     inkscape:groupmode="layer"
     id="layer1"
     transform="translate(0,-952.36216)" />
  <g
     inkscape:groupmode="layer"
     id="layer5"
     inkscape:label="4" />
  <g
     inkscape:groupmode="layer"
     id="layer4"
     inkscape:label="3"
     style="display:inline" />
  <g
     inkscape:groupmode="layer"
     id="layer2"
     inkscape:label="1"
     style="display:inline">
    <g
       id="g4197">
      <path
         style="fill:#bcd35f;fill-opacity:1;stroke:none;stroke-width:3;stroke-miterlimit:4;stroke-dasharray:none;stroke-opacity:1"
         d="M 50 0 A 50 50 0 0 0 0 50 A 50 50 0 0 0 50 100 A 50 50 0 0 0 100 50 A 50 50 0 0 0 50 0 z M 34.980469 20.533203 L 36.318359 20.533203 C 38.541835 20.533203 40.332031 22.323399 40.332031 24.546875 L 40.332031 51.570312 C 40.332031 53.793788 38.541835 55.583984 36.318359 55.583984 L 34.980469 55.583984 C 32.756993 55.583984 30.96875 53.793789 30.96875 51.570312 L 30.96875 24.546875 C 30.96875 22.323399 32.756993 20.533203 34.980469 20.533203 z M 63.681641 20.533203 L 65.019531 20.533203 C 67.243007 20.533203 69.03125 22.323399 69.03125 24.546875 L 69.03125 51.570312 C 69.03125 53.793788 67.243007 55.583984 65.019531 55.583984 L 63.681641 55.583984 C 61.458165 55.583984 59.667969 53.793788 59.667969 51.570312 L 59.667969 24.546875 C 59.667969 22.323399 61.458165 20.533203 63.681641 20.533203 z M 29.537109 69.455078 A 4.5593987 4.5593987 0 0 1 32.103516 70.275391 C 38.188522 74.37047 44.045993 76.728792 49.765625 76.972656 C 55.485257 77.216521 61.296051 75.491025 67.876953 70.439453 A 4.5593987 4.5593987 0 0 1 70.708984 69.457031 A 4.5593987 4.5593987 0 0 1 73.429688 77.673828 C 65.517714 83.747143 57.313969 86.420437 49.376953 86.082031 C 41.439938 85.743626 33.998631 82.540572 27.013672 77.839844 A 4.5593987 4.5593987 0 0 1 29.537109 69.455078 z "
         id="path4145" />
      <path
         style="fill:none;fill-rule:evenodd;stroke:#000000;stroke-width:1px;stroke-linecap:butt;stroke-linejoin:miter;stroke-opacity:1"
         d="M 74.849609,73.77832 Z"
         id="path4252"
         inkscape:connector-curvature="0" />
    </g>
  </g>
  <g
     inkscape:groupmode="layer"
     id="layer3"
     inkscape:label="1 eyes"
     style="display:inline" />
</svg>
