<svg xmlns="http://www.w3.org/2000/svg" xmlns:xlink="http://www.w3.org/1999/xlink" version="1.1" x="0px" y="0px" viewBox="0 0 100 100" enable-background="new 0 0 100 100" xml:space="preserve"><path fill="#000000" d="M66.977,34.402H81.96L59.143,11.673v14.896C59.143,30.893,62.659,34.402,66.977,34.402z M67.098,39.186  c-7.017,0-12.722-5.715-12.722-12.746V10H26.741c-3.815,0-6.916,3.102-6.916,6.919v66.162c0,3.817,3.1,6.919,6.916,6.919h21.168  c-0.713-0.705-11.961-11.836-18.085-17.883c-1.984-1.961-1.984-5.131,0-7.084c1.967-1.948,5.167-1.948,7.153,0  c7.806,7.714,9.516,9.393,9.516,9.393s0.005-19.262,0.005-28.104c0-2.766,2.272-5.006,5.062-5.006c2.799,0,5.06,2.24,5.06,5.006  c0,10.557-0.011,28.131-0.011,28.131s3.049-3.018,9.367-9.264c1.988-1.963,5.189-1.963,7.16,0c1.973,1.938,1.973,5.119,0,7.064  C65.629,79.689,55.9,89.305,55.201,90h22.046c3.833,0,6.928-3.102,6.928-6.919V39.186H67.098L67.098,39.186z"></path></svg>