<?xml version="1.0" encoding="utf-8"?><!DOCTYPE svg PUBLIC "-//W3C//DTD SVG 1.1//EN" "http://www.w3.org/Graphics/SVG/1.1/DTD/svg11.dtd"><svg version="1.1" xmlns="http://www.w3.org/2000/svg" xmlns:xlink="http://www.w3.org/1999/xlink" x="0px" y="0px" viewBox="0 0 100.001 77.018" enable-background="new 0 0 100.001 77.018" xml:space="preserve"><g><path fill="#010101" d="M94.837,8.774c-2.851,0-5.163,2.312-5.163,5.162v50.744c0,1.109-0.901,2.012-2.011,2.012H12.335
		c-1.109,0-2.012-0.901-2.012-2.012V13.937c0-2.851-2.311-5.162-5.162-5.162C2.311,8.774,0,11.086,0,13.937v50.744
		c0,6.802,5.535,12.337,12.337,12.337h75.327c6.802,0,12.337-5.535,12.337-12.337V13.937C99.999,11.085,97.688,8.774,94.837,8.774z"></path><path fill="#010101" d="M49.999,57.561l27.225-27.224c2.016-2.015,2.016-5.284,0-7.299c-2.016-2.018-5.285-2.018-7.301,0
		L55.16,37.798V5.163C55.16,2.311,52.85,0,49.999,0c-2.851,0-5.161,2.312-5.161,5.163v32.635L30.076,23.036
		c-2.016-2.018-5.285-2.018-7.3,0c-2.016,2.016-2.016,5.285,0,7.299L49.999,57.561z"></path></g></svg>