<svg xmlns="http://www.w3.org/2000/svg" xmlns:xlink="http://www.w3.org/1999/xlink" version="1.1" x="0px" y="0px" viewBox="0 0 100 100" enable-background="new 0 0 100 100" xml:space="preserve"><path fill="#000000" d="M50.5,6.401C26.421,6.401,6.901,25.921,6.901,50S26.421,93.599,50.5,93.599S94.099,74.079,94.099,50  S74.579,6.401,50.5,6.401z M50.5,89.447c-21.786,0-39.447-17.661-39.447-39.447S28.714,10.553,50.5,10.553S89.947,28.214,89.947,50  S72.286,89.447,50.5,89.447z"></path><path fill="#000000" d="M56.728,81.142c-4.152,0-8.305,0-12.457,0c-2.293,0-4.152-1.859-4.152-4.152c0-4.152,0-8.305,0-12.457  c0-2.293-1.859-4.152-4.152-4.152c-4.152,0-8.305,0-12.457,0c-2.293,0-4.152-1.859-4.152-4.152c0-4.152,0-8.305,0-12.457  c0-2.293,1.859-4.152,4.152-4.152c4.152,0,8.305,0,12.457,0c2.293,0,4.152-1.859,4.152-4.152c0-4.152,0-8.305,0-12.457  c0-2.293,1.859-4.152,4.152-4.152c4.152,0,8.305,0,12.457,0c2.293,0,4.152,1.859,4.152,4.152c0,4.152,0,8.305,0,12.457  c0,2.293,1.859,4.152,4.152,4.152c4.152,0,8.305,0,12.457,0c2.293,0,4.152,1.859,4.152,4.152c0,4.152,0,8.305,0,12.457  c0,2.293-1.859,4.152-4.152,4.152c-4.152,0-8.305,0-12.457,0c-2.293,0-4.152,1.859-4.152,4.152c0,4.152,0,8.305,0,12.457  C60.881,79.283,59.022,81.142,56.728,81.142z"></path></svg>